<?xml version="1.0" encoding="UTF-8"?>
<svg xmlns="http://www.w3.org/2000/svg" version="1.1" viewBox="0 0 1728 1117">
  <defs>
    <style>
      .cls-1 {
        stroke-width: 4.82px;
      }

      .cls-1, .cls-2, .cls-3, .cls-4, .cls-5, .cls-6, .cls-7, .cls-8, .cls-9 {
        fill: none;
        opacity: .07;
        stroke: #703b8c;
        stroke-miterlimit: 10;
      }

      .cls-2 {
        stroke-width: 3.22px;
      }

      .cls-3 {
        stroke-width: 2.2px;
      }

      .cls-4 {
        stroke-width: 5px;
      }

      .cls-5 {
        stroke-width: 2px;
      }

      .cls-6 {
        stroke-width: 3.9px;
      }

      .cls-7 {
        stroke-width: 2.35px;
      }

      .cls-8 {
        stroke-width: 4px;
      }

      .cls-9 {
        stroke-width: 2.26px;
      }
    </style>
  </defs>
  <g id="COLMEIAS">
    <path class="cls-9" d="M1031.88,57.68h-52.75c-1.07,0-2.06.57-2.6,1.5l-26.38,45.68c-.54.93-.54,2.07,0,3l26.38,45.68c.54.93,1.53,1.5,2.6,1.5h52.75c1.07,0,2.06-.57,2.6-1.5l26.38-45.68c.54-.93.54-2.07,0-3l-26.38-45.68c-.54-.93-1.53-1.5-2.6-1.5Z"/>
    <path class="cls-9" d="M890.38,929.77h-52.75c-1.07,0-2.06.57-2.6,1.5l-26.38,45.68c-.54.93-.54,2.07,0,3l26.38,45.68c.54.93,1.53,1.5,2.6,1.5h52.75c1.07,0,2.06-.57,2.6-1.5l26.38-45.68c.54-.93.54-2.07,0-3l-26.38-45.68c-.54-.93-1.53-1.5-2.6-1.5Z"/>
    <path class="cls-4" d="M1215.9,111.93h114.78c1.07,0,2.06.57,2.6,1.5l57.39,99.41c.54.93.54,2.07,0,3l-57.39,99.41c-.54.93-1.53,1.5-2.6,1.5h-114.78c-1.07,0-2.06-.57-2.6-1.5l-57.39-99.41c-.54-.93-.54-2.07,0-3l57.39-99.41c.54-.93,1.53-1.5,2.6-1.5Z"/>
    <path class="cls-8" d="M1353.67,385.86h95.85c1.07,0,2.06.57,2.6,1.5l47.92,83c.54.93.54,2.07,0,3l-47.92,83c-.54.93-1.53,1.5-2.6,1.5h-95.85c-1.07,0-2.06-.57-2.6-1.5l-47.92-83c-.54-.93-.54-2.07,0-3l47.92-83c.54-.93,1.53-1.5,2.6-1.5Z"/>
    <path class="cls-1" d="M1261.81,929.77h116.29c1.07,0,2.06.57,2.6,1.5l58.15,100.71c.54.93.54,2.07,0,3l-58.15,100.71c-.54.93-1.53,1.5-2.6,1.5h-116.29c-1.07,0-2.06-.57-2.6-1.5l-58.15-100.71c-.54-.93-.54-2.07,0-3l58.15-100.71c.54-.93,1.53-1.5,2.6-1.5Z"/>
    <path class="cls-5" d="M1154.24,733.39h46.26c1.07,0,2.06.57,2.6,1.5l23.13,40.06c.54.93.54,2.07,0,3l-23.13,40.06c-.54.93-1.53,1.5-2.6,1.5h-46.26c-1.07,0-2.06-.57-2.6-1.5l-23.13-40.06c-.54-.93-.54-2.07,0-3l23.13-40.06c.54-.93,1.53-1.5,2.6-1.5Z"/>
    <path class="cls-5" d="M1122.52,428.81h46.26c1.07,0,2.06.57,2.6,1.5l23.13,40.06c.54.93.54,2.07,0,3l-23.13,40.06c-.54.93-1.53,1.5-2.6,1.5h-46.26c-1.07,0-2.06-.57-2.6-1.5l-23.13-40.06c-.54-.93-.54-2.07,0-3l23.13-40.06c.54-.93,1.53-1.5,2.6-1.5Z"/>
    <path class="cls-3" d="M1594.47,424.57h51.16c1.07,0,2.06.57,2.6,1.5l25.58,44.3c.54.93.54,2.07,0,3l-25.58,44.3c-.54.93-1.53,1.5-2.6,1.5h-51.16c-1.07,0-2.06-.57-2.6-1.5l-25.58-44.3c-.54-.93-.54-2.07,0-3l25.58-44.3c.54-.93,1.53-1.5,2.6-1.5Z"/>
    <path class="cls-7" d="M1261,634.44h54.9c1.07,0,2.06.57,2.6,1.5l27.45,47.55c.54.93.54,2.07,0,3l-27.45,47.55c-.54.93-1.53,1.5-2.6,1.5h-54.9c-1.07,0-2.06-.57-2.6-1.5l-27.45-47.55c-.54-.93-.54-2.07,0-3l27.45-47.55c.54-.93,1.53-1.5,2.6-1.5Z"/>
    <path class="cls-6" d="M1609.6,949.58h93.42c1.07,0,2.06.57,2.6,1.5l46.71,80.9c.54.93.54,2.07,0,3l-46.71,80.9c-.54.93-1.53,1.5-2.6,1.5h-93.42c-1.07,0-2.06-.57-2.6-1.5l-46.71-80.9c-.54-.93-.54-2.07,0-3l46.71-80.9c.54-.93,1.53-1.5,2.6-1.5Z"/>
    <path class="cls-6" d="M1609.6,781.77h93.42c1.07,0,2.06.57,2.6,1.5l46.71,80.9c.54.93.54,2.07,0,3l-46.71,80.9c-.54.93-1.53,1.5-2.6,1.5h-93.42c-1.07,0-2.06-.57-2.6-1.5l-46.71-80.9c-.54-.93-.54-2.07,0-3l46.71-80.9c.54-.93,1.53-1.5,2.6-1.5Z"/>
    <path class="cls-6" d="M1464.09,697.87h93.42c1.07,0,2.06.57,2.6,1.5l46.71,80.9c.54.93.54,2.07,0,3l-46.71,80.9c-.54.93-1.53,1.5-2.6,1.5h-93.42c-1.07,0-2.06-.57-2.6-1.5l-46.71-80.9c-.54-.93-.54-2.07,0-3l46.71-80.9c.54-.93,1.53-1.5,2.6-1.5Z"/>
    <path class="cls-8" d="M1563.11,132.41h91.14c1.07,0,2.06.57,2.6,1.5l45.57,78.93c.54.93.54,2.07,0,3l-45.57,78.93c-.54.93-1.53,1.5-2.6,1.5h-91.14c-1.07,0-2.06-.57-2.6-1.5l-45.57-78.93c-.54-.93-.54-2.07,0-3l45.57-78.93c.54-.93,1.53-1.5,2.6-1.5Z"/>
    <path class="cls-9" d="M703.34,83.72h52.75c1.07,0,2.06.57,2.6,1.5l26.38,45.68c.54.93.54,2.07,0,3l-26.38,45.68c-.54.93-1.53,1.5-2.6,1.5h-52.75c-1.07,0-2.06-.57-2.6-1.5l-26.38-45.68c-.54-.93-.54-2.07,0-3l26.38-45.68c.54-.93,1.53-1.5,2.6-1.5Z"/>
    <path class="cls-4" d="M519.31,111.93h-114.78c-1.07,0-2.06.57-2.6,1.5l-57.39,99.41c-.54.93-.54,2.07,0,3l57.39,99.41c.54.93,1.53,1.5,2.6,1.5h114.78c1.07,0,2.06-.57,2.6-1.5l57.39-99.41c.54-.93.54-2.07,0-3l-57.39-99.41c-.54-.93-1.53-1.5-2.6-1.5Z"/>
    <path class="cls-8" d="M381.55,385.86h-95.85c-1.07,0-2.06.57-2.6,1.5l-47.92,83c-.54.93-.54,2.07,0,3l47.92,83c.54.93,1.53,1.5,2.6,1.5h95.85c1.07,0,2.06-.57,2.6-1.5l47.92-83c.54-.93.54-2.07,0-3l-47.92-83c-.54-.93-1.53-1.5-2.6-1.5Z"/>
    <path class="cls-2" d="M252.06,694.65h-76.38c-1.07,0-2.06.57-2.6,1.5l-38.19,66.15c-.54.93-.54,2.07,0,3l38.19,66.15c.54.93,1.53,1.5,2.6,1.5h76.38c1.07,0,2.06-.57,2.6-1.5l38.19-66.15c.54-.93.54-2.07,0-3l-38.19-66.15c-.54-.93-1.53-1.5-2.6-1.5Z"/>
    <path class="cls-2" d="M132.15,763.8H55.77c-1.07,0-2.06.57-2.6,1.5l-38.19,66.15c-.54.93-.54,2.07,0,3l38.19,66.15c.54.93,1.53,1.5,2.6,1.5h76.38c1.07,0,2.06-.57,2.6-1.5l38.19-66.15c.54-.93.54-2.07,0-3l-38.19-66.15c-.54-.93-1.53-1.5-2.6-1.5Z"/>
    <path class="cls-1" d="M473.41,929.77h-116.29c-1.07,0-2.06.57-2.6,1.5l-58.15,100.71c-.54.93-.54,2.07,0,3l58.15,100.71c.54.93,1.53,1.5,2.6,1.5h116.29c1.07,0,2.06-.57,2.6-1.5l58.15-100.71c.54-.93.54-2.07,0-3l-58.15-100.71c-.54-.93-1.53-1.5-2.6-1.5Z"/>
    <path class="cls-5" d="M580.98,733.39h-46.26c-1.07,0-2.06.57-2.6,1.5l-23.13,40.06c-.54.93-.54,2.07,0,3l23.13,40.06c.54.93,1.53,1.5,2.6,1.5h46.26c1.07,0,2.06-.57,2.6-1.5l23.13-40.06c.54-.93.54-2.07,0-3l-23.13-40.06c-.54-.93-1.53-1.5-2.6-1.5Z"/>
    <path class="cls-5" d="M612.7,428.81h-46.26c-1.07,0-2.06.57-2.6,1.5l-23.13,40.06c-.54.93-.54,2.07,0,3l23.13,40.06c.54.93,1.53,1.5,2.6,1.5h46.26c1.07,0,2.06-.57,2.6-1.5l23.13-40.06c.54-.93.54-2.07,0-3l-23.13-40.06c-.54-.93-1.53-1.5-2.6-1.5Z"/>
    <path class="cls-3" d="M140.75,424.57h-51.16c-1.07,0-2.06.57-2.6,1.5l-25.58,44.3c-.54.93-.54,2.07,0,3l25.58,44.3c.54.93,1.53,1.5,2.6,1.5h51.16c1.07,0,2.06-.57,2.6-1.5l25.58-44.3c.54-.93.54-2.07,0-3l-25.58-44.3c-.54-.93-1.53-1.5-2.6-1.5Z"/>
    <path class="cls-7" d="M474.21,634.44h-54.9c-1.07,0-2.06.57-2.6,1.5l-27.45,47.55c-.54.93-.54,2.07,0,3l27.45,47.55c.54.93,1.53,1.5,2.6,1.5h54.9c1.07,0,2.06-.57,2.6-1.5l27.45-47.55c.54-.93.54-2.07,0-3l-27.45-47.55c-.54-.93-1.53-1.5-2.6-1.5Z"/>
    <path class="cls-6" d="M126.02,952.54H32.6c-1.07,0-2.06.57-2.6,1.5l-46.71,80.9c-.54.93-.54,2.07,0,3l46.71,80.9c.54.93,1.53,1.5,2.6,1.5h93.42c1.07,0,2.06-.57,2.6-1.5l46.71-80.9c.54-.93.54-2.07,0-3l-46.71-80.9c-.54-.93-1.53-1.5-2.6-1.5Z"/>
    <path class="cls-8" d="M172.1,132.41h-91.14c-1.07,0-2.06.57-2.6,1.5l-45.57,78.93c-.54.93-.54,2.07,0,3l45.57,78.93c.54.93,1.53,1.5,2.6,1.5h91.14c1.07,0,2.06-.57,2.6-1.5l45.57-78.93c.54-.93.54-2.07,0-3l-45.57-78.93c-.54-.93-1.53-1.5-2.6-1.5Z"/>
  </g>
  <g id="TRACADOS">
    <line class="cls-9" x1="1391.08" y1="214.34" x2="1514.95" y2="214.34"/>
    <line class="cls-9" x1="1194.91" y1="471.87" x2="1302.75" y2="471.87"/>
    <line class="cls-9" x1="1500.44" y1="471.87" x2="1565.89" y2="471.87"/>
    <line class="cls-9" x1="1168.78" y1="428.81" x2="1215.9" y2="316.74"/>
    <line class="cls-5" x1="1201.88" y1="819.51" x2="1259.21" y2="929.77"/>
    <line class="cls-6" x1="1438.84" y1="1033.48" x2="1559.89" y2="1033.48"/>
    <line class="cls-2" x1="1213.86" y1="111.93" x2="1149.16" y2="-3.84"/>
    <line class="cls-7" x1="1317.13" y1="634.7" x2="1351.25" y2="557.87"/>
    <line class="cls-9" x1="344.14" y1="214.34" x2="220.27" y2="214.34"/>
    <line class="cls-9" x1="540.31" y1="471.87" x2="432.47" y2="471.87"/>
    <line class="cls-9" x1="234.78" y1="471.87" x2="169.33" y2="471.87"/>
    <line class="cls-9" x1="566.44" y1="428.81" x2="519.31" y2="316.74"/>
    <line class="cls-5" x1="533.34" y1="819.51" x2="476.01" y2="929.77"/>
    <line class="cls-6" x1="296.38" y1="1034.98" x2="175.33" y2="1034.98"/>
    <line class="cls-2" x1="521.36" y1="111.93" x2="586.06" y2="-3.84"/>
    <line class="cls-7" x1="418.09" y1="634.7" x2="383.97" y2="557.87"/>
  </g>
</svg>