<?xml version="1.0" encoding="utf-8"?>
<!-- Generator: Adobe Illustrator 27.9.4, SVG Export Plug-In . SVG Version: 9.03 Build 54784)  -->
<svg version="1.1" id="Camada_1" xmlns="http://www.w3.org/2000/svg" xmlns:xlink="http://www.w3.org/1999/xlink" x="0px" y="0px"
	 viewBox="0 0 1728 1117" style="enable-background: #703B8C;" xml:space="preserve">
<style type="text/css">
	.st0{opacity:0.3;}
	.st1{opacity:0.5;}
	.st2{opacity:0.55;clip-path:url(#SVGID_00000060018457893390337270000001139905553748462510_);}
	.st3{fill:#703B8C;}
	.st4{opacity:0.2;}
	.st5{clip-path:url(#SVGID_00000114032461102416388350000002377671380040973990_);}
</style>
<g class="st0">
	<g class="st1">
		<defs>
			
				<rect id="SVGID_1_" x="-22" y="-305.5" transform="matrix(-1.836970e-16 1 -1 -1.836970e-16 1422.5 -305.5)" class="st1" width="1772" height="1728"/>
		</defs>
		<clipPath id="SVGID_00000080887790651434025110000008075630664325813426_">
			<use xlink:href="#SVGID_1_"  style="overflow:visible;"/>
		</clipPath>
		<g style="opacity:0.55;clip-path:url(#SVGID_00000080887790651434025110000008075630664325813426_);">
			<g class="st0">
				<g>
					<g>
						<path class="st3" d="M1378.12,982.43l-0.86-1.57l74.38-132.22l0.88-1.52h150.53l74.41,132.16l0.86,1.58l-74.37,132.16
							l-0.89,1.52h-150.53L1378.12,982.43z M1671.34,980.85l-71.77-127.55h-143.55l-71.77,127.55l71.77,127.48h143.55
							L1671.34,980.85z"/>
					</g>
					<g>
						<path class="st3" d="M996.93,982.11l-0.68-1.26l59.53-105.84l0.71-1.21h120.5l59.56,105.79l0.69,1.26l-59.54,105.79
							l-0.71,1.21h-120.5L996.93,982.11z M1231.65,980.84l-57.45-102.1h-114.91l-57.46,102.1l57.46,102.05h114.91L1231.65,980.84z"
							/>
					</g>
					<g>
						<path class="st3" d="M904.53,1105.92l-0.4-0.74l35.01-62.23l0.42-0.72h70.85l35.03,62.21l0.4,0.74l-35.01,62.21l-0.42,0.72
							h-70.85L904.53,1105.92z M1042.56,1105.17l-33.79-60.04H941.2l-33.79,60.04l33.79,60.01h67.58L1042.56,1105.17z"/>
					</g>
					<g>
						<path class="st3" d="M919.72,692.04l-0.45-0.82l39.05-69.43l0.46-0.79h79.04l39.07,69.39l0.45,0.83l-39.05,69.38l-0.47,0.8
							h-79.04L919.72,692.04z M1073.69,691.22L1036,624.25h-75.37l-37.69,66.97l37.69,66.93H1036L1073.69,691.22z"/>
					</g>
					<g>
						<path class="st3" d="M1354.87,473.64l-0.26-0.46l21.86-38.87l0.26-0.45h44.25l21.87,38.85l0.26,0.47l-21.86,38.84l-0.26,0.45
							h-44.25L1354.87,473.64z M1441.06,473.18l-21.1-37.5h-42.2l-21.1,37.5l21.1,37.47h42.2L1441.06,473.18z"/>
					</g>
					<g>
						<path class="st3" d="M1636.18,665.19l-0.36-0.67l31.26-55.56l0.37-0.64h63.27l31.27,55.54l0.36,0.66l-31.26,55.54l-0.37,0.64
							h-63.27L1636.18,665.19z M1759.41,664.52l-30.16-53.6h-60.33l-30.16,53.6l30.16,53.58h60.33L1759.41,664.52z"/>
					</g>
					<g>
						<path class="st3" d="M1177.54,692.19l-0.59-1.09l51.34-91.26l0.62-1.04h103.89l51.36,91.21l0.59,1.09l-51.34,91.22l-0.61,1.04
							H1228.9L1177.54,692.19z M1379.92,691.09l-49.54-88.03h-99.08l-49.54,88.03l49.54,87.99h99.08L1379.92,691.09z"/>
					</g>
					<g>
						<polygon class="st3" points="1601.23,854.25 1670.58,718.99 1667.25,717.17 1597.9,852.43 						"/>
					</g>
					<g>
						<polygon class="st3" points="1331.87,602.32 1378.88,510.76 1376.22,509.24 1329.21,600.8 						"/>
					</g>
					<g>
						<rect x="1235.22" y="978.58" class="st3" width="149.02" height="3.95"/>
					</g>
					<g>
						<polygon class="st3" points="1175.81,879.74 1231.97,781.57 1228.71,779.6 1172.57,877.76 						"/>
					</g>
					<g>
						<rect x="1074.88" y="688.19" class="st3" width="105.71" height="3.95"/>
					</g>
				</g>
				<g>
					<g>
						<path class="st3" d="M1435.53-25.8l-0.86-1.58l74.38-132.22l0.88-1.52h150.53l74.41,132.16l0.86,1.58l-74.37,132.16
							l-0.89,1.52h-150.53L1435.53-25.8z M1728.75-27.37l-71.77-127.54h-143.55l-71.77,127.54l71.77,127.48h143.55L1728.75-27.37z"
							/>
					</g>
					<g>
						<path class="st3" d="M1054.34-26.12l-0.68-1.26l59.54-105.83l0.71-1.21h120.49l59.56,105.79l0.69,1.26l-59.54,105.79
							l-0.71,1.21h-120.49L1054.34-26.12z M1289.06-27.38l-57.45-102.1H1116.7l-57.45,102.1l57.45,102.05h114.91L1289.06-27.38z"/>
					</g>
					<g>
						<path class="st3" d="M1301.53,291.34l-0.73-1.34l62.98-111.96l0.75-1.29H1492l63,111.91l0.73,1.34l-62.98,111.9l-0.75,1.28
							h-127.46L1301.53,291.34z M1549.82,290l-60.78-108h-121.55l-60.78,108l60.78,107.95h121.55L1549.82,290z"/>
					</g>
					<g>
						<path class="st3" d="M1488.91,551.62l-0.42-0.77l36.24-64.42l0.44-0.74h73.34l36.25,64.39l0.42,0.77l-36.24,64.39l-0.44,0.74
							h-73.34L1488.91,551.62z M1631.77,550.86l-34.97-62.14h-69.94l-34.97,62.14l34.97,62.11h69.94L1631.77,550.86z"/>
					</g>
					<g>
						<path class="st3" d="M1679.41,289.88l-0.36-0.65l30.65-54.49l0.37-0.63h62.04l30.67,54.46l0.35,0.65l-30.65,54.46l-0.37,0.63
							h-62.04L1679.41,289.88z M1800.25,289.23l-29.58-52.56h-59.16l-29.58,52.56l29.58,52.54h59.16L1800.25,289.23z"/>
					</g>
					<g>
						<path class="st3" d="M1085.74,287.2l-0.41-0.74l35.02-62.24l0.41-0.71h70.86l35.02,62.21l0.41,0.74l-35.02,62.21l-0.41,0.71
							h-70.86L1085.74,287.2z M1223.77,286.46l-33.79-60.04h-67.57l-33.79,60.04l33.79,60.01h67.57L1223.77,286.46z"/>
					</g>
					<g>
						<path class="st3" d="M961.94,97.7l-0.4-0.74l35.01-62.24l0.42-0.71h70.86l35.02,62.21l0.4,0.74l-35.01,62.21l-0.41,0.71
							h-70.86L961.94,97.7z M1099.98,96.95l-33.79-60.04h-67.57l-33.79,60.04l33.79,60.01h67.57L1099.98,96.95z"/>
					</g>
					<g>
						<rect x="1292.63" y="-29.64" class="st3" width="149.03" height="3.94"/>
					</g>
					<g>
						<polygon class="st3" points="1709.75,237.39 1713.23,235.88 1658.71,99.33 1655.23,100.84 						"/>
					</g>
					<g>
						<rect x="1552.07" y="287.23" class="st3" width="129.87" height="3.94"/>
					</g>
					<g>
						<polygon class="st3" points="1525.11,489.48 1528.58,487.96 1491.22,399.13 1487.75,400.64 						"/>
					</g>
				</g>
			</g>
			<g>
				<g>
					<g>
						<path class="st3" d="M1378.38,1143.26h-122.46l-0.72-1.23l-60.51-107.5l0.7-1.28l60.53-107.51h122.46l0.72,1.23l60.51,107.56
							l-0.7,1.28L1378.38,1143.26z M1258.77,1138.23h116.78l58.39-103.7l-58.39-103.76h-116.78l-58.39,103.76L1258.77,1138.23z"/>
					</g>
					<g>
						<path class="st3" d="M1700.55,1121.56h-98.02l-0.58-0.99l-48.43-86.06l0.56-1.03l48.45-86.06h98.02l0.58,0.99l48.43,86.1
							l-0.56,1.03L1700.55,1121.56z M1604.8,1117.53h93.47l46.74-83.01l-46.74-83.06h-93.47l-46.74,83.06L1604.8,1117.53z"/>
					</g>
					<g>
						<path class="st3" d="M1780.03,856h-64.3l-0.38-0.65l-31.77-56.45l0.37-0.67l31.78-56.45h64.3l0.38,0.65l31.77,56.48
							l-0.37,0.67L1780.03,856z M1717.22,853.36h61.32l30.65-54.45l-30.65-54.48h-61.32l-30.65,54.48L1717.22,853.36z"/>
					</g>
					<g>
						<path class="st3" d="M1440.03,653.5h-35.99l-0.21-0.36l-17.78-31.6l0.2-0.38l17.8-31.6h35.99l0.21,0.36l17.78,31.62l-0.2,0.38
							L1440.03,653.5z M1404.87,652.03h34.33l17.16-30.49l-17.16-30.5h-34.33l-17.16,30.5L1404.87,652.03z"/>
					</g>
					<g>
						<path class="st3" d="M1203.55,822.89h-51.46l-0.3-0.52l-25.43-45.18l0.29-0.54l25.44-45.18h51.46l0.3,0.52l25.42,45.2
							l-0.29,0.54L1203.55,822.89z M1153.27,820.78h49.08l24.54-43.58l-24.54-43.6h-49.08l-24.54,43.6L1153.27,820.78z"/>
					</g>
					<g>
						<path class="st3" d="M1078.43,976.4h-56.18l-0.33-0.57l-27.76-49.33l0.32-0.59l27.77-49.33h56.18l0.33,0.57l27.76,49.35
							l-0.32,0.59L1078.43,976.4z M1023.55,974.09h53.57l26.79-47.58l-26.79-47.6h-53.57l-26.78,47.6L1023.55,974.09z"/>
					</g>
					<g>
						<path class="st3" d="M1560.3,873.86h-84.51l-0.5-0.85l-41.76-74.2l0.48-0.89l41.78-74.2h84.51l0.5,0.85l41.76,74.24
							l-0.48,0.89L1560.3,873.86z M1477.74,870.39h80.6l40.3-71.57l-40.3-71.61h-80.6l-40.3,71.61L1477.74,870.39z"/>
					</g>
					<g>
						<polygon class="st3" points="1257.42,931.53 1201,821.5 1203.71,820.02 1260.13,930.05 						"/>
					</g>
					<g>
						<polygon class="st3" points="1476.53,726.59 1438.29,652.1 1440.45,650.87 1478.7,725.36 						"/>
					</g>
					<g>
						<rect x="1433.93" y="1032.68" class="st3" width="121.23" height="3.21"/>
					</g>
					<g>
						<polygon class="st3" points="1603.48,952.27 1557.81,872.41 1560.45,870.81 1606.13,950.66 						"/>
					</g>
					<g>
						<rect x="1599.6" y="796.44" class="st3" width="85.99" height="3.21"/>
					</g>
				</g>
				<g>
					<g>
						<path class="st3" d="M1331.68,323.09h-122.46l-0.72-1.23l-60.51-107.51l0.7-1.28l60.53-107.51h122.46l0.72,1.23l60.51,107.56
							l-0.7,1.28L1331.68,323.09z M1212.06,318.05h116.78l58.39-103.7l-58.39-103.76h-116.78l-58.39,103.76L1212.06,318.05z"/>
					</g>
					<g>
						<path class="st3" d="M1653.84,301.39h-98.02l-0.58-0.99l-48.43-86.06l0.56-1.03l48.45-86.06h98.02l0.58,0.99l48.43,86.1
							l-0.56,1.03L1653.84,301.39z M1558.1,297.36h93.48l46.73-83.01l-46.73-83.05h-93.48l-46.74,83.05L1558.1,297.36z"/>
					</g>
					<g>
						<path class="st3" d="M1449.96,564.6h-103.69l-0.61-1.04l-51.24-91.03l0.59-1.09l51.25-91.03h103.69l0.61,1.05l51.23,91.07
							l-0.59,1.08L1449.96,564.6z M1348.68,560.34h98.88l49.43-87.81l-49.43-87.86h-98.88l-49.44,87.86L1348.68,560.34z"/>
					</g>
					<g>
						<path class="st3" d="M1319.3,737.71h-59.66l-0.35-0.6l-29.48-52.38l0.35-0.62l29.49-52.38h59.66l0.35,0.6l29.47,52.4
							l-0.34,0.62L1319.3,737.71z M1261.02,735.25h56.9l28.44-50.52l-28.44-50.55h-56.9l-28.44,50.55L1261.02,735.25z"/>
					</g>
					<g>
						<path class="st3" d="M1168.87,516.71h-50.46l-0.3-0.51l-24.93-44.31l0.28-0.52l24.95-44.31h50.46l0.3,0.51l24.94,44.32
							l-0.29,0.53L1168.87,516.71z M1119.58,514.63h48.13l24.06-42.74l-24.06-42.75h-48.13l-24.06,42.75L1119.58,514.63z"/>
					</g>
					<g>
						<path class="st3" d="M1648.26,520.83h-57.65l-0.34-0.58l-28.48-50.6l0.32-0.61l28.49-50.6h57.65l0.34,0.58l28.48,50.63
							l-0.33,0.6L1648.26,520.83z M1591.96,518.46h54.97l27.48-48.81l-27.48-48.84h-54.97l-27.49,48.84L1591.96,518.46z"/>
					</g>
					<g>
						<path class="st3" d="M1748.97,366.67h-57.65l-0.34-0.58l-28.48-50.61l0.33-0.6l28.49-50.61h57.65l0.34,0.58l28.48,50.63
							l-0.32,0.6L1748.97,366.67z M1692.66,364.3h54.97l27.49-48.82l-27.49-48.84h-54.97l-27.48,48.84L1692.66,364.3z"/>
					</g>
					<g>
						<path class="st3" d="M1733.32,35.84h-64.3l-0.38-0.65l-31.77-56.45l0.37-0.67l31.78-56.45h64.3l0.38,0.65l31.77,56.47
							l-0.37,0.67L1733.32,35.84z M1670.51,33.19h61.32l30.66-54.45l-30.66-54.48h-61.32l-30.65,54.48L1670.51,33.19z"/>
					</g>
					<g>
						<path class="st3" d="M1156.84,2.72h-51.46l-0.3-0.52l-25.43-45.18l0.29-0.54l25.44-45.18h51.46l0.3,0.52l25.42,45.2
							l-0.29,0.54L1156.84,2.72z M1106.57,0.61h49.08l24.54-43.58l-24.54-43.6h-49.08l-24.54,43.6L1106.57,0.61z"/>
					</g>
					<g>
						<path class="st3" d="M1031.73,156.23h-56.18l-0.33-0.57l-27.76-49.32l0.32-0.59l27.77-49.32h56.18l0.33,0.57l27.76,49.35
							l-0.32,0.59L1031.73,156.23z M976.85,153.92h53.57l26.79-47.58l-26.79-47.6h-53.57l-26.78,47.6L976.85,153.92z"/>
					</g>
					<g>
						<path class="st3" d="M1513.6,53.69h-84.51l-0.5-0.85l-41.76-74.2l0.48-0.89l41.78-74.2h84.51l0.5,0.85l41.76,74.23l-0.48,0.89
							L1513.6,53.69z M1431.04,50.21h80.6l40.3-71.58l-40.3-71.61h-80.6l-40.3,71.61L1431.04,50.21z"/>
					</g>
					<g>
						<polygon class="st3" points="1210.72,111.36 1154.3,1.33 1157.01,-0.15 1213.42,109.88 						"/>
					</g>
					<g>
						<rect x="1387.22" y="212.51" class="st3" width="121.23" height="3.21"/>
					</g>
					<g>
						<polygon class="st3" points="1169.13,429.73 1166.3,428.5 1210.66,317.42 1213.48,318.65 						"/>
					</g>
					<g>
						<rect x="1191.76" y="470.28" class="st3" width="105.64" height="3.21"/>
					</g>
					<g>
						<polygon class="st3" points="1319.34,634.8 1316.51,633.56 1346.9,561.3 1349.73,562.53 						"/>
					</g>
					<g>
						<polygon class="st3" points="1556.78,132.1 1511.1,52.24 1513.75,50.64 1559.42,130.49 						"/>
					</g>
					<g>
						<rect x="1552.9" y="-23.72" class="st3" width="85.99" height="3.21"/>
					</g>
				</g>
			</g>
		</g>
	</g>
	<g class="st4">
		<defs>
			
				<rect id="SVGID_00000011733808833234272400000005546468134979797932_" x="-22" y="-305.5" transform="matrix(-1.836970e-16 1 -1 -1.836970e-16 1422.5 -305.5)" class="st4" width="1772" height="1728"/>
		</defs>
		<clipPath id="SVGID_00000160159259336409699950000006973862404522884267_">
			<use xlink:href="#SVGID_00000011733808833234272400000005546468134979797932_"  style="overflow:visible;"/>
		</clipPath>
		<g style="clip-path:url(#SVGID_00000160159259336409699950000006973862404522884267_);">
			<g class="st0">
				<g>
					<g>
						<path class="st3" d="M275.47,1114.52H124.94l-0.89-1.52L49.67,980.85l0.86-1.58l74.41-132.16h150.53l0.89,1.52l74.38,132.22
							l-0.86,1.57L275.47,1114.52z M128.43,1108.34h143.55l71.77-127.48L271.98,853.3H128.43L56.66,980.85L128.43,1108.34z"/>
					</g>
					<g>
						<path class="st3" d="M671.51,1087.84h-120.5l-0.71-1.21l-59.54-105.79l0.69-1.26l59.56-105.79h120.5l0.71,1.21l59.54,105.84
							l-0.68,1.26L671.51,1087.84z M553.8,1082.89h114.91l57.46-102.05l-57.46-102.1H553.8l-57.45,102.1L553.8,1082.89z"/>
					</g>
					<g>
						<path class="st3" d="M788.44,1168.1h-70.85l-0.42-0.72l-35.01-62.21l0.4-0.74l35.03-62.21h70.85l0.42,0.72l35.01,62.23
							l-0.4,0.74L788.44,1168.1z M719.22,1165.19h67.58l33.79-60.01l-33.79-60.04h-67.58l-33.78,60.04L719.22,1165.19z"/>
					</g>
					<g>
						<path class="st3" d="M769.21,761.41h-79.04l-0.47-0.8l-39.05-69.38l0.45-0.83L690.17,621h79.04l0.46,0.79l39.05,69.43
							l-0.45,0.82L769.21,761.41z M692,758.15h75.37l37.69-66.93l-37.69-66.97H692l-37.69,66.97L692,758.15z"/>
					</g>
					<g>
						<path class="st3" d="M351.26,512.47h-44.25l-0.26-0.45l-21.86-38.84l0.25-0.47l21.87-38.85h44.25l0.26,0.45l21.86,38.87
							l-0.25,0.46L351.26,512.47z M308.04,510.66h42.2l21.1-37.47l-21.1-37.5h-42.2l-21.1,37.5L308.04,510.66z"/>
					</g>
					<g>
						<path class="st3" d="M60.55,720.7H-2.71l-0.37-0.64l-31.26-55.54l0.36-0.66l31.27-55.54h63.26l0.37,0.64l31.26,55.56
							l-0.36,0.67L60.55,720.7z M-1.25,718.1h60.33l30.16-53.58l-30.16-53.6H-1.25l-30.16,53.6L-1.25,718.1z"/>
					</g>
					<g>
						<path class="st3" d="M499.11,783.35h-103.9l-0.61-1.04l-51.34-91.22l0.59-1.09l51.36-91.21h103.9l0.61,1.04l51.34,91.26
							l-0.59,1.09L499.11,783.35z M397.62,779.09h99.08l49.54-87.99l-49.54-88.03h-99.08l-49.54,88.03L397.62,779.09z"/>
					</g>
					<g>
						<polygon class="st3" points="126.78,854.25 57.42,718.99 60.75,717.17 130.11,852.43 						"/>
					</g>
					<g>
						<polygon class="st3" points="396.13,602.32 349.11,510.76 351.78,509.24 398.79,600.8 						"/>
					</g>
					<g>
						<rect x="343.75" y="978.58" class="st3" width="149.03" height="3.95"/>
					</g>
					<g>
						<polygon class="st3" points="552.18,879.74 496.03,781.57 499.29,779.6 555.44,877.76 						"/>
					</g>
					<g>
						<rect x="547.41" y="688.19" class="st3" width="105.71" height="3.95"/>
					</g>
				</g>
				<g>
					<g>
						<path class="st3" d="M218.06,106.3H67.53l-0.89-1.52L-7.74-27.37l0.86-1.58l74.41-132.16h150.53l0.89,1.52l74.38,132.22
							l-0.86,1.58L218.06,106.3z M71.02,100.11h143.55l71.77-127.48l-71.77-127.54H71.02L-0.76-27.37L71.02,100.11z"/>
					</g>
					<g>
						<path class="st3" d="M614.09,79.62H493.6l-0.71-1.21L433.35-27.38l0.69-1.26l59.56-105.79h120.5l0.71,1.21l59.54,105.83
							l-0.69,1.26L614.09,79.62z M496.39,74.67H611.3l57.45-102.05l-57.45-102.1H496.39l-57.45,102.1L496.39,74.67z"/>
					</g>
					<g>
						<path class="st3" d="M363.46,403.19H236l-0.75-1.28L172.27,290l0.73-1.34L236,176.76h127.46l0.75,1.29L427.2,290l-0.73,1.34
							L363.46,403.19z M238.95,397.95h121.55L421.28,290l-60.78-108H238.95l-60.78,108L238.95,397.95z"/>
					</g>
					<g>
						<path class="st3" d="M202.84,615.98H129.5l-0.43-0.74l-36.24-64.39l0.42-0.77l36.25-64.39h73.34l0.43,0.74l36.24,64.42
							l-0.42,0.77L202.84,615.98z M131.2,612.97h69.94l34.97-62.11l-34.97-62.14H131.2l-34.97,62.14L131.2,612.97z"/>
					</g>
					<g>
						<path class="st3" d="M17.93,344.31h-62.04l-0.37-0.63l-30.65-54.46l0.35-0.65l30.67-54.46h62.04l0.37,0.63l30.65,54.49
							l-0.35,0.65L17.93,344.31z M-42.67,341.76h59.16l29.58-52.54l-29.58-52.56h-59.16l-29.58,52.56L-42.67,341.76z"/>
					</g>
					<g>
						<path class="st3" d="M607.23,349.38h-70.86l-0.42-0.71l-35.01-62.21l0.4-0.74l35.03-62.21h70.86l0.42,0.71l35.01,62.24
							l-0.4,0.74L607.23,349.38z M538.02,346.47h67.57l33.79-60.01l-33.79-60.04h-67.57l-33.79,60.04L538.02,346.47z"/>
					</g>
					<g>
						<path class="st3" d="M731.03,159.88h-70.86l-0.42-0.71l-35.01-62.21l0.4-0.74L660.17,34h70.86l0.42,0.71l35.01,62.24
							l-0.4,0.74L731.03,159.88z M661.81,156.97h67.57l33.79-60.01l-33.79-60.04h-67.57l-33.79,60.04L661.81,156.97z"/>
					</g>
					<g>
						<rect x="286.34" y="-29.64" class="st3" width="149.03" height="3.94"/>
					</g>
					<g>
						<polygon class="st3" points="18.25,237.39 14.77,235.88 69.29,99.33 72.77,100.84 						"/>
					</g>
					<g>
						<rect x="46.06" y="287.23" class="st3" width="129.87" height="3.94"/>
					</g>
					<g>
						<polygon class="st3" points="202.89,489.48 199.42,487.96 236.77,399.13 240.25,400.64 						"/>
					</g>
				</g>
			</g>
			<g>
				<g>
					<g>
						<path class="st3" d="M289.09,1035.8l-0.7-1.28l60.5-107.56l0.72-1.23h122.45l60.53,107.51l0.7,1.28l-60.5,107.5l-0.72,1.23
							H349.62L289.09,1035.8z M527.62,1034.52l-58.39-103.76H352.46l-58.39,103.76l58.39,103.7h116.77L527.62,1034.52z"/>
					</g>
					<g>
						<path class="st3" d="M-21,1035.54l-0.56-1.03l48.43-86.1l0.58-0.99h98.02l48.45,86.06l0.56,1.03l-48.43,86.06l-0.58,0.99
							H27.45L-21,1035.54z M169.94,1034.51l-46.74-83.06H29.73l-46.74,83.06l46.74,83.01h93.47L169.94,1034.51z"/>
					</g>
					<g>
						<path class="st3" d="M-83.81,799.58l-0.37-0.67l31.77-56.48l0.38-0.65h64.3l31.78,56.45l0.37,0.67l-31.77,56.45L12.27,856
							h-64.3L-83.81,799.58z M41.44,798.91l-30.66-54.48h-61.31l-30.66,54.48l30.66,54.45h61.31L41.44,798.91z"/>
					</g>
					<g>
						<path class="st3" d="M270.17,621.92l-0.21-0.38l17.79-31.62l0.21-0.36h36l17.79,31.6l0.21,0.38l-17.79,31.6l-0.21,0.36h-36
							L270.17,621.92z M340.29,621.54l-17.16-30.5H288.8l-17.16,30.5l17.16,30.49h34.33L340.29,621.54z"/>
					</g>
					<g>
						<path class="st3" d="M499.02,777.73l-0.29-0.54l25.43-45.2l0.3-0.52h51.46l25.44,45.18l0.29,0.54l-25.43,45.18l-0.3,0.52
							h-51.46L499.02,777.73z M599.26,777.19l-24.54-43.6h-49.07l-24.54,43.6l24.54,43.58h49.07L599.26,777.19z"/>
					</g>
					<g>
						<path class="st3" d="M621.8,927.1l-0.32-0.59l27.76-49.35l0.33-0.57h56.18l27.77,49.33l0.32,0.59l-27.76,49.33l-0.33,0.57
							h-56.18L621.8,927.1z M731.23,926.51l-26.78-47.6h-53.58l-26.79,47.6l26.79,47.58h53.58L731.23,926.51z"/>
					</g>
					<g>
						<path class="st3" d="M125.92,799.7l-0.48-0.89l41.76-74.24l0.5-0.85h84.52l41.78,74.2l0.48,0.89l-41.76,74.2l-0.5,0.85H167.7
							L125.92,799.7z M290.55,798.81l-40.3-71.61h-80.6l-40.3,71.61l40.3,71.57h80.6L290.55,798.81z"/>
					</g>
					<g>
						<polygon class="st3" points="470.58,931.53 527,821.5 524.29,820.02 467.87,930.05 						"/>
					</g>
					<g>
						<polygon class="st3" points="251.47,726.59 289.71,652.1 287.54,650.87 249.3,725.36 						"/>
					</g>
					<g>
						<rect x="172.84" y="1032.68" class="st3" width="121.23" height="3.21"/>
					</g>
					<g>
						<polygon class="st3" points="124.52,952.27 170.19,872.41 167.55,870.81 121.87,950.66 						"/>
					</g>
					<g>
						<rect x="42.4" y="796.44" class="st3" width="86" height="3.21"/>
					</g>
				</g>
				<g>
					<g>
						<path class="st3" d="M335.79,215.63l-0.7-1.28l60.51-107.56l0.72-1.23h122.45l60.53,107.51l0.7,1.28l-60.5,107.51l-0.72,1.23
							H396.32L335.79,215.63z M574.32,214.35l-58.39-103.76H399.16l-58.39,103.76l58.39,103.7h116.77L574.32,214.35z"/>
					</g>
					<g>
						<path class="st3" d="M25.7,215.37l-0.56-1.03l48.43-86.1l0.58-0.99h98.02l48.45,86.06l0.56,1.03l-48.43,86.06l-0.58,0.99
							H74.16L25.7,215.37z M216.64,214.34l-46.74-83.05H76.43l-46.74,83.05l46.74,83.01h93.47L216.64,214.34z"/>
					</g>
					<g>
						<path class="st3" d="M226.78,473.61l-0.59-1.08l51.23-91.07l0.61-1.05h103.69l51.25,91.03l0.59,1.09l-51.23,91.03l-0.61,1.04
							H278.04L226.78,473.61z M428.76,472.53l-49.44-87.86h-98.88L231,472.53l49.44,87.81h98.88L428.76,472.53z"/>
					</g>
					<g>
						<path class="st3" d="M379.21,685.35l-0.34-0.62l29.48-52.4l0.35-0.6h59.66l29.49,52.38l0.34,0.62l-29.48,52.38l-0.35,0.6
							H408.7L379.21,685.35z M495.43,684.73l-28.45-50.55h-56.89l-28.45,50.55l28.45,50.52h56.89L495.43,684.73z"/>
					</g>
					<g>
						<path class="st3" d="M534.18,472.42l-0.29-0.53l24.94-44.32l0.3-0.51h50.47l24.95,44.31l0.29,0.52l-24.94,44.31l-0.3,0.51
							h-50.47L534.18,472.42z M632.48,471.89l-24.06-42.75h-48.12l-24.06,42.75l24.06,42.74h48.12L632.48,471.89z"/>
					</g>
					<g>
						<path class="st3" d="M51.24,470.25l-0.33-0.6l28.48-50.63l0.34-0.58h57.64l28.49,50.6l0.33,0.61l-28.48,50.6l-0.34,0.58H79.74
							L51.24,470.25z M163.53,469.65l-27.48-48.84H81.07l-27.48,48.84l27.48,48.81h54.97L163.53,469.65z"/>
					</g>
					<g>
						<path class="st3" d="M-49.46,316.09l-0.33-0.6l28.48-50.63l0.34-0.58h57.64l28.49,50.61l0.33,0.6l-28.48,50.61l-0.34,0.58
							h-57.64L-49.46,316.09z M62.82,315.49l-27.48-48.84h-54.97l-27.48,48.84l27.48,48.82h54.97L62.82,315.49z"/>
					</g>
					<g>
						<path class="st3" d="M-37.1-20.59l-0.37-0.67L-5.7-77.73l0.38-0.65h64.3l31.78,56.45l0.37,0.67L59.35,35.19l-0.38,0.65h-64.3
							L-37.1-20.59z M88.14-21.26L57.48-75.74H-3.83l-30.66,54.48l30.66,54.45h61.31L88.14-21.26z"/>
					</g>
					<g>
						<path class="st3" d="M545.72-42.44l-0.29-0.54l25.43-45.2l0.3-0.52h51.46l25.44,45.18l0.29,0.54L622.93,2.2l-0.3,0.52h-51.46
							L545.72-42.44z M645.97-42.98l-24.54-43.6h-49.07l-24.54,43.6l24.54,43.58h49.07L645.97-42.98z"/>
					</g>
					<g>
						<path class="st3" d="M668.5,106.93l-0.32-0.59l27.76-49.35l0.33-0.57h56.18l27.77,49.32l0.32,0.59l-27.76,49.32l-0.33,0.57
							h-56.18L668.5,106.93z M777.94,106.34l-26.78-47.6h-53.57l-26.79,47.6l26.79,47.58h53.57L777.94,106.34z"/>
					</g>
					<g>
						<path class="st3" d="M172.62-20.48l-0.48-0.89L213.9-95.6l0.5-0.85h84.52l41.78,74.2l0.48,0.89l-41.76,74.2l-0.5,0.85H214.4
							L172.62-20.48z M337.26-21.36l-40.3-71.61h-80.6l-40.3,71.61l40.3,71.58h80.6L337.26-21.36z"/>
					</g>
					<g>
						<polygon class="st3" points="517.28,111.36 573.7,1.33 570.99,-0.15 514.57,109.88 						"/>
					</g>
					<g>
						<rect x="219.55" y="212.51" class="st3" width="121.23" height="3.21"/>
					</g>
					<g>
						<polygon class="st3" points="558.87,429.73 561.7,428.5 517.34,317.42 514.51,318.65 						"/>
					</g>
					<g>
						<rect x="430.59" y="470.28" class="st3" width="105.65" height="3.21"/>
					</g>
					<g>
						<polygon class="st3" points="408.66,634.8 411.49,633.56 381.1,561.3 378.27,562.53 						"/>
					</g>
					<g>
						<polygon class="st3" points="171.22,132.1 216.9,52.24 214.25,50.64 168.58,130.49 						"/>
					</g>
					<g>
						<rect x="89.11" y="-23.72" class="st3" width="86" height="3.21"/>
					</g>
				</g>
			</g>
		</g>
	</g>
</g>
</svg>
